# xmcd
#
# Track frame offsets: 
#        150
#        13319
#        27663
#        41089
#        52255
#        70117
#        83829
#        96423
#        109593
#        125155
#
# Disc length: 1850 seconds
#
# Revision: 0
# Processed by: cddbd v1.5.2PL0 Copyright (c) Steve Scherf et al.
# Submitted via: ExactAudioCopyFreeDBPlugin 1.0
#
DISCID=9207380a
DTITLE=Ronnie Milsap - A Legend In My Time
DYEAR=1975
DGENRE=Country
TTITLE0=The Busiest Memory In Town
TTITLE1=Too Late To Worry, Too Blue To Cry
TTITLE2=(I'd Be) A Legend In My Time
TTITLE3=The Biggest Lie
TTITLE4=Country Cookin'
TTITLE5=She Came Here For The Change
TTITLE6=I'll Leave This World Loving You
TTITLE7=I'm Still Not Over You
TTITLE8=I Honestly Love You
TTITLE9=Clap Your Hands
EXTD=
EXTT0=
EXTT1=
EXTT2=
EXTT3=
EXTT4=
EXTT5=
EXTT6=
EXTT7=
EXTT8=
EXTT9=
PLAYORDER=
